<svg width="123" height="28" viewBox="0 0 123 28" fill="none" xmlns="http://www.w3.org/2000/svg">
<path d="M27.3984 14C27.3995 15.2346 27.23 16.4633 26.8948 17.6515L26.5103 17.6903C26.4791 17.693 26.4474 17.6958 26.4168 17.6969L26.092 17.7116C25.6697 17.7293 25.2609 17.8655 24.9123 18.1045C24.5638 18.3436 24.2896 18.6759 24.121 19.0635L24.0379 19.2527C23.8992 19.5686 23.6716 19.8373 23.3828 20.026C23.094 20.2147 22.7565 20.3152 22.4115 20.3153H21.0295C20.8702 20.3158 20.7164 20.2568 20.5983 20.1499C20.4802 20.043 20.4062 19.8958 20.3908 19.7373L20.3355 19.1849C20.3028 18.8476 20.194 18.5222 20.0172 18.233C19.8405 17.9439 19.6004 17.6987 19.3151 17.5159C19.2037 17.4443 19.1121 17.3458 19.0487 17.2294C18.9853 17.1131 18.9522 16.9828 18.9525 16.8503V16.2969C18.9526 16.1433 18.9853 15.9915 19.0484 15.8514C19.1116 15.7114 19.2038 15.5865 19.3189 15.4848L21.6792 13.4001C22.0117 13.1053 22.2528 12.7215 22.374 12.294C22.4953 11.8665 22.4916 11.4133 22.3634 10.9878C22.2301 10.5488 21.9724 10.1579 21.6214 9.86253C21.2703 9.56714 20.8412 9.37995 20.3859 9.32367L20.1474 9.29414C19.8631 9.25933 19.6016 9.12089 19.413 8.90531C19.3231 8.8031 19.2671 8.67554 19.2527 8.5402C19.2383 8.40485 19.2662 8.26837 19.3326 8.14953L19.827 7.30406C20.4381 6.26078 21.1586 5.2855 21.9762 4.39469L22.5094 3.65094C24.0396 4.90646 25.2719 6.4861 26.1174 8.2758C26.9629 10.0655 27.4004 12.0206 27.3984 14Z" fill="#D8FF33"/>
<path d="M26.5103 17.6903L26.8948 17.6515C25.305 23.2766 20.1338 27.3984 14 27.3984C6.60023 27.3984 0.601562 21.3998 0.601562 14C0.601562 13.5784 0.620703 13.1617 0.658984 12.7499L0.820859 12.7652L1.00352 12.7291C1.43639 12.6444 1.8849 12.6969 2.28653 12.8792C2.68815 13.0615 3.02289 13.3646 3.24406 13.7463C3.34844 13.9251 3.47812 14.0879 3.62906 14.2297L4.58172 15.1266C4.75202 15.2866 4.95894 15.4025 5.18438 15.464L5.29539 15.4946C5.61786 15.5832 5.91191 15.7538 6.14891 15.9897C6.38591 16.2257 6.55778 16.519 6.64781 16.841L7.15805 18.6834C7.21972 18.9047 7.32291 19.1122 7.46211 19.2949L9.00922 21.3232C9.2023 21.5765 9.3307 21.8731 9.38328 22.1873L9.80383 24.7106C9.81721 24.8011 9.86356 24.8835 9.93398 24.9419C9.9843 24.9823 10.0446 25.0084 10.1085 25.0174C10.1725 25.0263 10.2376 25.0178 10.2971 24.9927C10.4165 24.9429 10.52 24.8613 10.5966 24.757C10.6731 24.6526 10.7197 24.5294 10.7313 24.4005C10.7823 23.8847 10.9886 23.3965 11.323 23.0005L11.7715 22.4618C11.8508 22.3664 11.9103 22.2562 11.9465 22.1375L12.4075 20.6434C12.5434 20.2019 12.8133 19.8136 13.1797 19.5322L14.5502 18.48C14.6497 18.4058 14.7174 18.2965 14.7394 18.1743C14.7505 18.1073 14.7468 18.0388 14.7286 17.9734C14.7104 17.908 14.678 17.8474 14.6338 17.7959L13.7216 16.7224C13.667 16.6584 13.615 16.5917 13.5663 16.5233L12.8685 15.5515C12.483 15.0134 11.8661 14.6568 11.2038 14.6743C11.1373 14.6759 11.0717 14.6586 11.0146 14.6245L9.58945 13.7692C9.38445 13.6469 9.15135 13.5796 8.9127 13.5737C8.67405 13.5679 8.43793 13.6237 8.22719 13.7359L7.47633 14.1384C7.14761 14.3145 6.76442 14.3596 6.40377 14.2648C6.04312 14.1699 5.73173 13.9421 5.53219 13.627L4.80266 12.4753C4.63751 12.2144 4.55208 11.9109 4.55684 11.6021C4.5616 11.2933 4.65634 10.9926 4.82945 10.7368C5.01485 10.4615 5.27324 10.2434 5.57567 10.1067C5.87809 9.97 6.21261 9.92024 6.54172 9.96298L7.63602 10.1019C7.82699 10.1282 8.02148 10.0978 8.19532 10.0144C8.36916 9.93111 8.51469 9.79855 8.61383 9.63321C8.78468 9.3393 9.03839 9.10229 9.34323 8.95181C9.64808 8.80133 9.99052 8.74408 10.3277 8.7872L10.8063 8.84845C10.9741 8.86947 11.1446 8.84638 11.3008 8.78146C11.457 8.71653 11.5936 8.61202 11.6971 8.47822L12.1188 7.93134C12.3047 7.69145 12.4091 7.39845 12.4167 7.09506C12.4244 6.79166 12.3349 6.49376 12.1614 6.24478L11.252 4.93392C10.9034 4.43082 10.4491 4.00994 9.92086 3.70072C9.78205 3.61972 9.64803 3.5308 9.51945 3.43439L8.75328 2.85908L7.78313 2.12845C10.1161 0.90822 12.7566 0.401901 15.3755 0.672653C17.9943 0.943405 20.4754 1.97924 22.5094 3.65095L21.9762 4.3947C21.1586 5.28551 20.4381 6.26079 19.827 7.30407L19.3326 8.14954C19.2662 8.26838 19.2383 8.40486 19.2527 8.54021C19.2671 8.67555 19.3231 8.80311 19.413 8.90532C19.6016 9.1209 19.8631 9.25934 20.1474 9.29415L20.3859 9.32368C20.8412 9.37996 21.2703 9.56715 21.6214 9.86254C21.9724 10.1579 22.2301 10.5488 22.3634 10.9878C22.4916 11.4133 22.4953 11.8665 22.374 12.294C22.2528 12.7215 22.0117 13.1053 21.6792 13.4001L19.3189 15.4848C19.2038 15.5865 19.1116 15.7115 19.0484 15.8515C18.9853 15.9915 18.9526 16.1433 18.9525 16.2969V16.8503C18.9522 16.9828 18.9853 17.1132 19.0487 17.2295C19.112 17.3458 19.2037 17.4443 19.3151 17.5159C19.6004 17.6987 19.8405 17.9439 20.0172 18.2331C20.194 18.5222 20.3028 18.8476 20.3355 19.1849L20.3908 19.7373C20.4062 19.8959 20.4802 20.043 20.5983 20.1499C20.7164 20.2568 20.8702 20.3158 21.0295 20.3153H22.4115C22.7565 20.3152 23.094 20.2147 23.3828 20.026C23.6716 19.8373 23.8992 19.5686 24.0379 19.2527L24.121 19.0635C24.2896 18.6759 24.5638 18.3436 24.9123 18.1045C25.2609 17.8655 25.6697 17.7293 26.092 17.7117L26.4168 17.6969C26.4474 17.6958 26.4791 17.6931 26.5103 17.6903Z" fill="#55D8D8"/>
<path d="M14.6338 17.7959C14.678 17.8474 14.7104 17.908 14.7286 17.9734C14.7468 18.0388 14.7505 18.1073 14.7394 18.1743C14.7174 18.2965 14.6497 18.4058 14.5502 18.48L13.1797 19.5322C12.8133 19.8136 12.5434 20.2019 12.4075 20.6434L11.9465 22.1375C11.9103 22.2562 11.8508 22.3664 11.7715 22.4618L11.3231 23.0005C10.9886 23.3965 10.7823 23.8847 10.7313 24.4005C10.7197 24.5294 10.6731 24.6526 10.5966 24.757C10.52 24.8613 10.4165 24.9429 10.2971 24.9927C10.2376 25.0178 10.1725 25.0263 10.1085 25.0174C10.0446 25.0084 9.9843 24.9823 9.93399 24.9419C9.86357 24.8835 9.81722 24.8011 9.80383 24.7106L9.38329 22.1873C9.3307 21.8731 9.2023 21.5765 9.00922 21.3232L7.46211 19.2949C7.32292 19.1122 7.21973 18.9047 7.15805 18.6835L6.64782 16.841C6.55779 16.519 6.38591 16.2257 6.14891 15.9897C5.91191 15.7538 5.61787 15.5832 5.29539 15.4946L5.18438 15.464C4.95894 15.4025 4.75202 15.2866 4.58172 15.1266L3.62907 14.2297C3.47812 14.0879 3.34845 13.9251 3.24407 13.7463C3.02289 13.3646 2.68816 13.0615 2.28653 12.8792C1.8849 12.6969 1.43639 12.6444 1.00352 12.7291L0.820864 12.7652L0.658989 12.7499C0.867439 10.526 1.62833 8.38958 2.8725 6.53463C4.11668 4.67968 5.80469 3.16507 7.78313 2.12845L8.75329 2.85907L9.51946 3.43439C9.64803 3.5308 9.78206 3.61972 9.92086 3.70071C10.4491 4.00994 10.9034 4.43082 11.252 4.93392L12.1614 6.24478C12.335 6.49375 12.4244 6.79166 12.4167 7.09506C12.4091 7.39845 12.3047 7.69145 12.1188 7.93134L11.6971 8.47821C11.5936 8.61202 11.457 8.71653 11.3008 8.78145C11.1446 8.84638 10.9741 8.86947 10.8063 8.84845L10.3277 8.7872C9.99052 8.74407 9.64808 8.80133 9.34324 8.95181C9.03839 9.10229 8.78468 9.3393 8.61383 9.63321C8.51469 9.79855 8.36917 9.93111 8.19533 10.0144C8.02149 10.0978 7.827 10.1282 7.63602 10.1019L6.54172 9.96298C6.21261 9.92024 5.8781 9.97 5.57567 10.1067C5.27324 10.2433 5.01485 10.4615 4.82946 10.7368C4.65635 10.9926 4.56161 11.2933 4.55685 11.6021C4.55209 11.9109 4.63751 12.2144 4.80266 12.4753L5.53219 13.627C5.73174 13.9421 6.04312 14.1699 6.40378 14.2648C6.76443 14.3596 7.14761 14.3145 7.47633 14.1384L8.22719 13.7359C8.43794 13.6237 8.67405 13.5679 8.9127 13.5737C9.15135 13.5796 9.38446 13.6469 9.58946 13.7692L11.0146 14.6245C11.0717 14.6586 11.1373 14.6759 11.2038 14.6743C11.8661 14.6568 12.483 15.0134 12.8685 15.5515L13.5663 16.5233C13.615 16.5917 13.667 16.6584 13.7216 16.7224L14.6338 17.7959Z" fill="#D8FF33"/>
<path d="M14 0.60158C11.8345 0.598327 9.70075 1.12238 7.78313 2.12845L8.75328 2.85908L9.51945 3.43439C9.64485 3.52826 9.77541 3.61502 9.91052 3.69427L9.97068 3.6597C11.9015 2.65026 14.0492 2.12622 16.2279 2.13289C18.4067 2.13956 20.5511 2.67674 22.4757 3.69798L22.5094 3.65095C20.1144 1.67495 17.105 0.596519 14 0.60158Z" fill="#6BF2EE"/>
<path d="M2.78906 15.5312C2.78906 15.1096 2.8082 14.6929 2.84648 14.2811L2.97259 13.3783C2.72778 13.1101 2.418 12.9094 2.07311 12.7957C1.72822 12.682 1.35985 12.659 1.00351 12.7291L0.820853 12.7652L0.658978 12.7498C0.621243 13.1616 0.602103 13.5784 0.601556 14C0.600752 16.3824 1.23543 18.7219 2.44014 20.7772C3.64485 22.8326 5.37599 24.5294 7.45505 25.6927C5.98979 24.4363 4.81401 22.8774 4.00855 21.1233C3.20309 19.3692 2.78706 17.4614 2.78906 15.5312Z" fill="#6BF2EE"/>
<path d="M2.96303 13.3679C3.29736 11.3292 4.09812 9.39541 5.30285 7.71719C6.50759 6.03898 8.08373 4.66176 9.90834 3.69295C9.77402 3.61404 9.64419 3.52772 9.51946 3.43439L8.75329 2.85907L7.78313 2.12845C5.80469 3.16507 4.11668 4.67968 2.8725 6.53463C1.62833 8.38958 0.867439 10.526 0.658989 12.7499L0.820864 12.7652L1.00352 12.7291C1.35751 12.6595 1.7234 12.6817 2.06639 12.7935C2.40938 12.9053 2.71805 13.1031 2.96303 13.3679Z" fill="#F5FF92"/>
<path d="M13.7266 5.09089e-05C11.0117 4.66274e-05 8.35783 0.805093 6.10051 2.31339C3.84318 3.82168 2.08381 5.96548 1.04488 8.47368C0.00594692 10.9819 -0.265885 13.7418 0.263759 16.4045C0.793404 19.0672 2.10074 21.5131 4.02043 23.4328C6.59467 26.007 10.0861 27.4532 13.7266 27.4532C17.3671 27.4532 20.8585 26.007 23.4327 23.4328C26.007 20.8585 27.4532 17.3671 27.4532 13.7266C27.4532 10.0861 26.007 6.59469 23.4327 4.02046C22.1611 2.74183 20.6484 1.72813 18.9824 1.03803C17.3163 0.347922 15.5299 -0.00487644 13.7266 5.09089e-05ZM4.4844 4.48443C5.36982 3.5976 6.3777 2.84216 7.47734 2.24114L9.04911 3.42311C9.18768 3.5271 9.33207 3.62311 9.48158 3.71065C9.96815 3.99632 10.387 4.38413 10.7092 4.84733L11.6182 6.15819C11.7519 6.35001 11.8208 6.57955 11.8149 6.81332C11.809 7.04708 11.7286 7.27285 11.5854 7.45767L11.1638 8.00455C11.0952 8.09305 11.0048 8.16218 10.9014 8.20512C10.798 8.24806 10.6853 8.26334 10.5742 8.24944L10.0958 8.18825C9.69453 8.13662 9.28697 8.20461 8.92421 8.3837C8.56145 8.56279 8.25965 8.845 8.05664 9.19493C7.99022 9.30474 7.89288 9.39253 7.77682 9.4473C7.66075 9.50208 7.53111 9.52141 7.40411 9.50288L6.30993 9.36392C5.9206 9.31316 5.52483 9.37194 5.16705 9.53366C4.80928 9.69537 4.50366 9.95361 4.28452 10.2794C4.07544 10.588 3.96101 10.9509 3.95527 11.3236C3.94953 11.6962 4.05273 12.0625 4.2522 12.3774L4.98173 13.5293C5.22669 13.9131 5.60721 14.1905 6.0475 14.3063C6.4878 14.4221 6.95556 14.3678 7.35763 14.1542L8.10865 13.7518C8.2693 13.6663 8.44928 13.6238 8.63119 13.6282C8.81311 13.6326 8.99081 13.6839 9.14711 13.777L10.5725 14.6323C10.683 14.6987 10.8101 14.7322 10.9389 14.7288C11.467 14.7141 11.9862 14.9917 12.3287 15.4692L13.026 16.4412C13.0802 16.5167 13.1381 16.5908 13.1981 16.6614L14.1104 17.7347C14.1239 17.7502 14.1336 17.7685 14.1391 17.7883C14.1445 17.808 14.1455 17.8288 14.1419 17.849C14.1331 17.8884 14.1097 17.9232 14.0766 17.9464L12.7062 18.9987C12.2853 19.3207 11.9756 19.7662 11.8203 20.2729L11.3597 21.7673C11.336 21.8445 11.2972 21.9162 11.2455 21.9782L10.7971 22.5174C10.4195 22.964 10.1871 23.515 10.1307 24.0971C10.1244 24.1666 10.0993 24.2331 10.0581 24.2894C10.0168 24.3457 9.96101 24.3897 9.89661 24.4166C9.89132 24.4189 9.88548 24.4196 9.87979 24.4187C9.8741 24.4177 9.86882 24.4151 9.86461 24.4111C9.8586 24.4029 9.85483 24.3932 9.85368 24.3831L9.43362 21.8601C9.37213 21.4932 9.22228 21.1469 8.997 20.851L7.44972 18.8221C7.33564 18.6728 7.25131 18.5031 7.20133 18.322L6.69066 16.4796C6.58519 16.1029 6.38411 15.76 6.10695 15.484C5.82979 15.208 5.48597 15.0084 5.10888 14.9046L4.99765 14.8742C4.82398 14.8267 4.66458 14.7374 4.53335 14.6142L3.58064 13.7176C3.45272 13.5972 3.3428 13.4591 3.25426 13.3074C3.00578 12.8804 2.63409 12.5383 2.1879 12.3261C1.74171 12.1139 1.24182 12.0414 0.753731 12.1181C1.10505 9.22691 2.41913 6.53803 4.4844 4.48443ZM22.9688 22.9688C21.1409 24.7967 18.8119 26.0416 16.2765 26.5459C13.7411 27.0503 11.1131 26.7914 8.72478 25.8022C6.33647 24.8129 4.29515 23.1376 2.85897 20.9882C1.42279 18.8387 0.656246 16.3117 0.656278 13.7266C0.656278 13.4152 0.667215 13.1057 0.68909 12.798L0.793434 12.7774C1.15946 12.7064 1.53852 12.7511 1.87796 12.9054C2.2174 13.0597 2.50038 13.3158 2.68759 13.6382C2.80785 13.8443 2.95715 14.032 3.13089 14.1955L4.08343 15.092C4.29296 15.2888 4.54745 15.4314 4.82472 15.5073L4.93596 15.5376C5.20348 15.6113 5.44741 15.7529 5.64403 15.9487C5.84065 16.1445 5.98329 16.3878 6.05809 16.655L6.56876 18.4974C6.64102 18.7591 6.76288 19.0045 6.92773 19.2202L8.47506 21.2491C8.63554 21.46 8.7423 21.7067 8.78612 21.968L9.20667 24.4912C9.23101 24.6539 9.31303 24.8024 9.43777 24.9096C9.5625 25.0168 9.72163 25.0756 9.88611 25.0753C9.97698 25.0753 10.0669 25.0572 10.1507 25.022C10.3251 24.9491 10.4762 24.83 10.5879 24.6776C10.6996 24.5251 10.7675 24.3451 10.7844 24.1569C10.829 23.7072 11.0095 23.2818 11.3019 22.9374L11.7503 22.3982C11.8574 22.2696 11.9378 22.121 11.9869 21.9611L12.4476 20.4667C12.5629 20.09 12.7931 19.7589 13.106 19.5195L14.4764 18.4673C14.643 18.3424 14.7554 18.1582 14.7901 17.9529C14.8084 17.8391 14.8019 17.7227 14.7709 17.6118C14.7399 17.5008 14.6852 17.3979 14.6106 17.3101L13.6982 16.2368C13.6497 16.1798 13.603 16.12 13.5593 16.0591L12.8619 15.087C12.3925 14.4326 11.6672 14.0534 10.9219 14.0731C10.9178 14.0732 10.9137 14.0721 10.9102 14.07L9.4847 13.2147C9.23093 13.0634 8.94242 12.9802 8.64706 12.973C8.3517 12.9658 8.05949 13.035 7.79868 13.1738L7.04771 13.5761C6.79191 13.712 6.49431 13.7465 6.21418 13.6728C5.93405 13.5992 5.69195 13.4227 5.5361 13.1785L4.80657 12.0266C4.67548 11.8197 4.60766 11.579 4.61145 11.334C4.61524 11.0891 4.69047 10.8506 4.8279 10.6478C4.97925 10.4227 5.19037 10.2443 5.43753 10.1326C5.68469 10.0208 5.95811 9.98023 6.22707 10.0153L7.32143 10.1543C7.57632 10.1892 7.83584 10.1481 8.06752 10.0362C8.2992 9.92438 8.49274 9.74667 8.62392 9.52535C8.76221 9.28699 8.96781 9.09477 9.21492 8.97279C9.46203 8.85081 9.73966 8.8045 10.013 8.83968L10.4914 8.90088C10.716 8.92892 10.944 8.898 11.1531 8.81116C11.3621 8.72433 11.5449 8.58456 11.6836 8.40563L12.1052 7.85875C12.3338 7.56376 12.4622 7.20343 12.4716 6.83033C12.481 6.45723 12.3709 6.09088 12.1575 5.78473L11.2484 4.47349C10.8717 3.93197 10.3819 3.47858 9.81304 3.14458C9.68517 3.06966 9.56169 2.9875 9.44319 2.89849L8.12747 1.90892C10.3228 0.873163 12.7626 0.467632 15.175 0.737557C17.5873 1.00748 19.8772 1.94225 21.7893 3.4376L21.4478 3.91403C20.6196 4.81786 19.8897 5.80714 19.2705 6.86519L18.7744 7.71339C18.6738 7.8913 18.6311 8.09611 18.6523 8.29939C18.6734 8.50268 18.7573 8.69432 18.8924 8.84772C19.1341 9.12425 19.4694 9.3019 19.8339 9.34664L20.0722 9.37595C20.4645 9.42443 20.8343 9.58569 21.1368 9.84018C21.4392 10.0947 21.6614 10.4315 21.7762 10.8097C21.8862 11.175 21.8894 11.5642 21.7852 11.9312C21.681 12.2983 21.4739 12.6278 21.1883 12.8808L18.8399 14.9657C18.6916 15.0988 18.5735 15.2621 18.4933 15.4445C18.4132 15.6269 18.3729 15.8243 18.375 16.0235V16.5769C18.3723 16.7633 18.4168 16.9473 18.5044 17.1119C18.592 17.2765 18.7198 17.4162 18.8759 17.5181C19.1188 17.6747 19.3229 17.8844 19.4729 18.1315C19.6229 18.3785 19.7148 18.6563 19.7417 18.9441L19.794 19.4832C19.8171 19.7212 19.9288 19.9419 20.1071 20.1013C20.2853 20.2607 20.517 20.3473 20.7561 20.3438H22.1378C22.5454 20.3464 22.9449 20.2299 23.2873 20.0087C23.6296 19.7874 23.8999 19.471 24.065 19.0983L24.148 18.9157C24.2922 18.5846 24.5268 18.3008 24.8249 18.0969C25.123 17.893 25.4725 17.7772 25.8334 17.7628L26.1585 17.7498L26.1685 17.7491C25.5323 19.7187 24.4354 21.5082 22.9688 22.9688ZM26.3657 17.074L26.2044 17.0904C26.1789 17.093 26.1533 17.0948 26.1284 17.0959L25.8037 17.1106C25.3202 17.1307 24.8521 17.2866 24.453 17.5603C24.0539 17.8341 23.74 18.2147 23.5472 18.6585L23.4641 18.8346C23.3503 19.0906 23.1641 19.3078 22.9285 19.4593C22.6928 19.6109 22.418 19.6902 22.1378 19.6875H20.7561C20.6796 19.6906 20.6047 19.6645 20.5468 19.6145C20.4888 19.5645 20.4521 19.4942 20.444 19.4181L20.3887 18.8723C20.3534 18.4872 20.2308 18.1152 20.0303 17.7845C19.8299 17.4537 19.5568 17.173 19.2317 16.9635C19.168 16.9216 19.1162 16.864 19.0811 16.7964C19.046 16.7287 19.0288 16.6532 19.0313 16.577V16.0235C19.0291 15.9172 19.0497 15.8117 19.0916 15.7141C19.1336 15.6165 19.196 15.5289 19.2746 15.4574L21.6289 13.3726C22.0082 13.036 22.283 12.5978 22.421 12.1099C22.5589 11.6219 22.5542 11.1047 22.4074 10.6193C22.2553 10.1194 21.9615 9.67435 21.5616 9.33806C21.1617 9.00176 20.6728 8.78868 20.1542 8.72462L19.9152 8.69531C19.7107 8.67024 19.5226 8.57065 19.387 8.41558C19.3425 8.36513 19.3145 8.3023 19.3067 8.2355C19.2988 8.1687 19.3116 8.1011 19.3432 8.04174L19.8375 7.19654C20.4364 6.17312 21.1429 5.21661 21.945 4.34328C21.954 4.3335 21.9624 4.32318 21.9701 4.31238L22.2963 3.85727C22.5263 4.05775 22.7504 4.26681 22.9688 4.48443C24.1863 5.69531 25.1515 7.13565 25.8086 8.72207C26.4657 10.3085 26.8016 12.0095 26.7969 13.7266C26.7976 14.8563 26.6527 15.9814 26.3657 17.074L26.3657 17.074Z" fill="#284268"/>
<g filter="url(#filter0_d)">
<path d="M38.482 20C38.362 20 38.254 19.958 38.158 19.874C38.074 19.778 38.032 19.67 38.032 19.55V10.226H34.828C34.708 10.226 34.6 10.184 34.504 10.1C34.42 10.004 34.378 9.896 34.378 9.776V7.85C34.378 7.718 34.42 7.61 34.504 7.526C34.6 7.442 34.708 7.4 34.828 7.4H44.512C44.644 7.4 44.752 7.442 44.836 7.526C44.92 7.61 44.962 7.718 44.962 7.85V9.776C44.962 9.908 44.92 10.016 44.836 10.1C44.752 10.184 44.644 10.226 44.512 10.226H41.308V19.55C41.308 19.67 41.266 19.778 41.182 19.874C41.098 19.958 40.99 20 40.858 20H38.482ZM45.0183 20C44.8863 20 44.7783 19.958 44.6943 19.874C44.6103 19.79 44.5683 19.682 44.5683 19.55V11.09C44.5683 10.958 44.6103 10.85 44.6943 10.766C44.7783 10.682 44.8863 10.64 45.0183 10.64H47.0883C47.2203 10.64 47.3283 10.688 47.4123 10.784C47.5083 10.868 47.5563 10.97 47.5563 11.09V11.81C48.2163 11.03 49.1043 10.64 50.2203 10.64H51.0123C51.1443 10.64 51.2523 10.682 51.3363 10.766C51.4203 10.85 51.4623 10.958 51.4623 11.09V12.944C51.4623 13.064 51.4203 13.172 51.3363 13.268C51.2523 13.352 51.1443 13.394 51.0123 13.394H49.2663C48.7743 13.394 48.3903 13.532 48.1143 13.808C47.8503 14.072 47.7183 14.45 47.7183 14.942V19.55C47.7183 19.682 47.6703 19.79 47.5743 19.874C47.4903 19.958 47.3823 20 47.2503 20H45.0183ZM52.2741 9.29C52.1421 9.29 52.0341 9.248 51.9501 9.164C51.8661 9.08 51.8241 8.972 51.8241 8.84V7.22C51.8241 7.088 51.8661 6.98 51.9501 6.896C52.0341 6.812 52.1421 6.77 52.2741 6.77H54.4341C54.5661 6.77 54.6741 6.812 54.7581 6.896C54.8421 6.98 54.8841 7.088 54.8841 7.22V8.84C54.8841 8.972 54.8421 9.08 54.7581 9.164C54.6741 9.248 54.5661 9.29 54.4341 9.29H52.2741ZM52.2921 20C52.1601 20 52.0521 19.958 51.9681 19.874C51.8841 19.79 51.8421 19.682 51.8421 19.55V11.09C51.8421 10.958 51.8841 10.85 51.9681 10.766C52.0521 10.682 52.1601 10.64 52.2921 10.64H54.4161C54.5481 10.64 54.6561 10.682 54.7401 10.766C54.8241 10.85 54.8661 10.958 54.8661 11.09V19.55C54.8661 19.67 54.8241 19.778 54.7401 19.874C54.6561 19.958 54.5481 20 54.4161 20H52.2921ZM56.5425 23.42C56.4225 23.42 56.3145 23.378 56.2185 23.294C56.1345 23.21 56.0925 23.102 56.0925 22.97V11.09C56.0925 10.958 56.1345 10.85 56.2185 10.766C56.3145 10.682 56.4225 10.64 56.5425 10.64H58.5765C58.7085 10.64 58.8165 10.682 58.9005 10.766C58.9845 10.85 59.0265 10.958 59.0265 11.09V11.738C59.6745 10.886 60.6045 10.46 61.8165 10.46C62.9925 10.46 63.9105 10.826 64.5705 11.558C65.2305 12.29 65.5905 13.322 65.6505 14.654C65.6625 14.81 65.6685 15.032 65.6685 15.32C65.6685 15.608 65.6625 15.83 65.6505 15.986C65.6025 17.282 65.2425 18.308 64.5705 19.064C63.8985 19.808 62.9805 20.18 61.8165 20.18C60.6405 20.18 59.7645 19.778 59.1885 18.974V22.97C59.1885 23.102 59.1465 23.21 59.0625 23.294C58.9785 23.378 58.8705 23.42 58.7385 23.42H56.5425ZM60.8445 17.768C61.4085 17.768 61.8105 17.6 62.0505 17.264C62.3025 16.928 62.4465 16.466 62.4825 15.878C62.5065 15.638 62.5185 15.452 62.5185 15.32C62.5185 15.188 62.5065 15.002 62.4825 14.762C62.4465 14.174 62.3025 13.712 62.0505 13.376C61.8105 13.04 61.4085 12.872 60.8445 12.872C60.2925 12.872 59.8845 13.046 59.6205 13.394C59.3685 13.73 59.2245 14.168 59.1885 14.708L59.1705 15.374L59.1885 16.058C59.2125 16.55 59.3625 16.958 59.6385 17.282C59.9145 17.606 60.3165 17.768 60.8445 17.768ZM71.1019 20.18C70.1779 20.18 69.3199 20.024 68.5279 19.712C67.7479 19.388 67.1179 18.914 66.6379 18.29C66.1699 17.666 65.9239 16.916 65.8999 16.04C65.8999 15.932 65.9359 15.842 66.0079 15.77C66.0799 15.686 66.1759 15.644 66.2959 15.644H68.7259C68.8819 15.644 69.0019 15.686 69.0859 15.77C69.1819 15.854 69.2659 15.98 69.3379 16.148C69.5299 17.108 70.1479 17.588 71.1919 17.588C71.7919 17.588 72.2539 17.39 72.5779 16.994C72.9019 16.598 73.0639 16.028 73.0639 15.284V10.082H67.2319C67.1119 10.082 67.0039 10.04 66.9079 9.956C66.8239 9.86 66.7819 9.752 66.7819 9.632V7.85C66.7819 7.718 66.8239 7.61 66.9079 7.526C67.0039 7.442 67.1119 7.4 67.2319 7.4H75.9439C76.0759 7.4 76.1839 7.442 76.2679 7.526C76.3639 7.61 76.4119 7.718 76.4119 7.85V15.374C76.4119 16.394 76.1899 17.264 75.7459 17.984C75.3019 18.704 74.6779 19.25 73.8739 19.622C73.0699 19.994 72.1459 20.18 71.1019 20.18ZM81.127 20.18C80.071 20.18 79.219 19.826 78.571 19.118C77.923 18.398 77.599 17.396 77.599 16.112V11.09C77.599 10.958 77.641 10.85 77.725 10.766C77.809 10.682 77.917 10.64 78.049 10.64H80.299C80.431 10.64 80.539 10.682 80.623 10.766C80.719 10.85 80.767 10.958 80.767 11.09V16.004C80.767 17.18 81.289 17.768 82.333 17.768C82.837 17.768 83.233 17.612 83.521 17.3C83.809 16.988 83.953 16.556 83.953 16.004V11.09C83.953 10.958 83.995 10.85 84.079 10.766C84.175 10.682 84.283 10.64 84.403 10.64H86.653C86.785 10.64 86.893 10.682 86.977 10.766C87.061 10.85 87.103 10.958 87.103 11.09V19.55C87.103 19.67 87.061 19.778 86.977 19.874C86.893 19.958 86.785 20 86.653 20H84.565C84.445 20 84.337 19.958 84.241 19.874C84.157 19.778 84.115 19.67 84.115 19.55V18.866C83.491 19.742 82.495 20.18 81.127 20.18ZM88.7702 20C88.6382 20 88.5302 19.958 88.4462 19.874C88.3622 19.79 88.3202 19.682 88.3202 19.55V11.09C88.3202 10.958 88.3622 10.85 88.4462 10.766C88.5302 10.682 88.6382 10.64 88.7702 10.64H90.8402C90.9722 10.64 91.0802 10.682 91.1642 10.766C91.2602 10.85 91.3082 10.958 91.3082 11.09V11.774C91.6322 11.378 92.0462 11.06 92.5502 10.82C93.0662 10.58 93.6482 10.46 94.2962 10.46C95.3522 10.46 96.2102 10.82 96.8702 11.54C97.5302 12.248 97.8602 13.244 97.8602 14.528V19.55C97.8602 19.67 97.8182 19.778 97.7342 19.874C97.6502 19.958 97.5422 20 97.4102 20H95.1422C95.0222 20 94.9142 19.958 94.8182 19.874C94.7342 19.778 94.6922 19.67 94.6922 19.55V14.636C94.6922 14.072 94.5542 13.64 94.2782 13.34C94.0022 13.028 93.6062 12.872 93.0902 12.872C92.5862 12.872 92.1902 13.028 91.9022 13.34C91.6142 13.64 91.4702 14.072 91.4702 14.636V19.55C91.4702 19.67 91.4282 19.778 91.3442 19.874C91.2602 19.958 91.1522 20 91.0202 20H88.7702ZM99.4366 20C99.3166 20 99.2086 19.958 99.1126 19.874C99.0286 19.778 98.9866 19.67 98.9866 19.55V7.67C98.9866 7.538 99.0286 7.43 99.1126 7.346C99.2086 7.262 99.3166 7.22 99.4366 7.22H101.525C101.657 7.22 101.765 7.262 101.849 7.346C101.933 7.43 101.975 7.538 101.975 7.67V13.7L104.477 10.946C104.501 10.922 104.543 10.88 104.603 10.82C104.675 10.76 104.747 10.718 104.819 10.694C104.891 10.658 104.975 10.64 105.071 10.64H107.483C107.591 10.64 107.681 10.682 107.753 10.766C107.837 10.838 107.879 10.928 107.879 11.036C107.879 11.168 107.831 11.27 107.735 11.342L104.495 14.834L108.185 19.316C108.281 19.412 108.329 19.502 108.329 19.586C108.329 19.706 108.287 19.808 108.203 19.892C108.131 19.964 108.035 20 107.915 20H105.449C105.293 20 105.173 19.976 105.089 19.928C105.017 19.88 104.927 19.802 104.819 19.694L101.975 16.274V19.55C101.975 19.67 101.933 19.778 101.849 19.874C101.765 19.958 101.657 20 101.525 20H99.4366ZM109.048 9.29C108.916 9.29 108.808 9.248 108.724 9.164C108.64 9.08 108.598 8.972 108.598 8.84V7.22C108.598 7.088 108.64 6.98 108.724 6.896C108.808 6.812 108.916 6.77 109.048 6.77H111.208C111.34 6.77 111.448 6.812 111.532 6.896C111.616 6.98 111.658 7.088 111.658 7.22V8.84C111.658 8.972 111.616 9.08 111.532 9.164C111.448 9.248 111.34 9.29 111.208 9.29H109.048ZM109.066 20C108.934 20 108.826 19.958 108.742 19.874C108.658 19.79 108.616 19.682 108.616 19.55V11.09C108.616 10.958 108.658 10.85 108.742 10.766C108.826 10.682 108.934 10.64 109.066 10.64H111.19C111.322 10.64 111.43 10.682 111.514 10.766C111.598 10.85 111.64 10.958 111.64 11.09V19.55C111.64 19.67 111.598 19.778 111.514 19.874C111.43 19.958 111.322 20 111.19 20H109.066ZM117.186 20.18C115.746 20.18 114.612 19.79 113.784 19.01C112.956 18.23 112.524 17.096 112.488 15.608V14.978C112.536 13.562 112.974 12.458 113.802 11.666C114.642 10.862 115.764 10.46 117.168 10.46C118.188 10.46 119.046 10.67 119.742 11.09C120.45 11.498 120.978 12.062 121.326 12.782C121.686 13.502 121.866 14.33 121.866 15.266V15.698C121.866 15.818 121.824 15.926 121.74 16.022C121.656 16.106 121.548 16.148 121.416 16.148H115.656V16.274C115.68 16.838 115.818 17.294 116.07 17.642C116.322 17.99 116.688 18.164 117.168 18.164C117.468 18.164 117.714 18.104 117.906 17.984C118.098 17.852 118.272 17.696 118.428 17.516C118.536 17.384 118.62 17.306 118.68 17.282C118.752 17.246 118.86 17.228 119.004 17.228H121.236C121.344 17.228 121.434 17.264 121.506 17.336C121.59 17.396 121.632 17.48 121.632 17.588C121.632 17.9 121.452 18.26 121.092 18.668C120.744 19.076 120.234 19.43 119.562 19.73C118.89 20.03 118.098 20.18 117.186 20.18ZM118.698 14.366V14.33C118.698 13.742 118.56 13.28 118.284 12.944C118.02 12.596 117.648 12.422 117.168 12.422C116.7 12.422 116.328 12.596 116.052 12.944C115.788 13.28 115.656 13.742 115.656 14.33V14.366H118.698Z" fill="white"/>
</g>
<defs>
<filter id="filter0_d" x="33.378" y="6.76999" width="89.4883" height="18.65" filterUnits="userSpaceOnUse" color-interpolation-filters="sRGB">
<feFlood flood-opacity="0" result="BackgroundImageFix"/>
<feColorMatrix in="SourceAlpha" type="matrix" values="0 0 0 0 0 0 0 0 0 0 0 0 0 0 0 0 0 0 127 0"/>
<feOffset dy="1"/>
<feGaussianBlur stdDeviation="0.5"/>
<feColorMatrix type="matrix" values="0 0 0 0 0 0 0 0 0 0 0 0 0 0 0 0 0 0 0.25 0"/>
<feBlend mode="normal" in2="BackgroundImageFix" result="effect1_dropShadow"/>
<feBlend mode="normal" in="SourceGraphic" in2="effect1_dropShadow" result="shape"/>
</filter>
</defs>
</svg>
